# xmcd CD database file
#
# Track frame offsets:
#	150
#	23371
#	37486
#	56507
#	66489
#	85809
#	107014
#	124637
#	140291
#	159264
#	177237
#	193286
#	208663
#	228162
#
# Disc length: 3305 seconds
#
# Revision: 0
# Processed by: cddbd v1.5PL3 Copyright (c) Steve Scherf et al.
# Submitted via: CDex 1.40Release
#
DISCID=be0ce70e
DTITLE=Junior Watson - If I Had A Genie
DYEAR=2002
DGENRE=Blues
TTITLE0=Word About A Woman
TTITLE1=If I Had A Genie
TTITLE2=Early In The Morning
TTITLE3=Two Tacos
TTITLE4=Lonesome Old Feeling
TTITLE5=Blues Aftere Hours
TTITLE6=Call Everybody Sweetheart
TTITLE7=Pleasure Is All Mine
TTITLE8=Flappin
TTITLE9=Something's Wrong
TTITLE10=It's You
TTITLE11=Spring-Roll
TTITLE12=House Party
TTITLE13=Strangest Woman
EXTD=YEAR: 2002 ID3G: 0
EXTT0=
EXTT1=
EXTT2=
EXTT3=
EXTT4=
EXTT5=
EXTT6=
EXTT7=
EXTT8=
EXTT9=
EXTT10=
EXTT11=
EXTT12=
EXTT13=
PLAYORDER=
